<svg width="31" height="31" viewBox="0 0 31 31" fill="none" xmlns="http://www.w3.org/2000/svg">
<g id="68747470733a2f2f63646e2e6a7364656c6976722e6e65742f6e706d2f73696d706c652d69636f6e7340332e302e312f69636f6e732f6275796d6561636f666665652e737667" clip-path="url(#clip0_1_6051)">
<path id="Vector" d="M9.40247 0.549988L7.88247 4.04874H5.62622V7.20249H6.49497L7.37622 12.8H5.99497L7.81997 23.0875L8.99247 23.075L10.17 30.55H21.3175L21.395 30.05L22.495 23.075L23.605 23.0875L25.43 12.7987H24.11L24.9912 7.20249H25.9362V4.04999H23.5387L22.0175 0.549988H9.40247ZM10.0625 1.55624H21.3662L22.33 3.78124H9.09497L10.0625 1.55624ZM6.62497 5.05249H24.93V6.20249H6.62497V5.05249ZM7.19122 13.8H24.235L22.765 22.075L15.7037 22L8.65872 22.075L7.19122 13.8Z" fill="#F1BE5A"/>
</g>
<defs>
<clipPath id="clip0_1_6051">
<rect width="30" height="30" fill="white" transform="translate(0.780029 0.549988)"/>
</clipPath>
</defs>
</svg>
