<svg width="30" height="31" viewBox="0 0 30 31" fill="none" xmlns="http://www.w3.org/2000/svg">
<g id="68747470733a2f2f63646e2e6a7364656c6976722e6e65742f6e706d2f73696d706c652d69636f6e7340332e302e312f69636f6e732f646973636f72642e737667" clip-path="url(#clip0_1_6048)">
<path id="Vector" d="M25.2774 0.549988C27.0349 0.549988 28.4524 1.97124 28.5362 3.64374V30.55L25.1899 27.7087L23.3524 26.0362L21.3474 24.2887L22.1849 27.045H4.6374C2.8849 27.045 1.4624 25.7137 1.4624 23.95V3.64999C1.4624 1.97749 2.8874 0.553738 4.64365 0.553738H25.2687L25.2774 0.549988ZM17.6299 7.65374H17.5924L17.3399 7.90374C19.9312 8.65374 21.1849 9.82499 21.1849 9.82499C19.5149 8.98999 18.0099 8.57249 16.5049 8.40374C15.4174 8.23499 14.3299 8.32374 13.4112 8.40374H13.1612C12.5737 8.40374 11.3237 8.65374 9.64865 9.32249C9.0649 9.57624 8.7299 9.74249 8.7299 9.74249C8.7299 9.74249 9.9824 8.48999 12.7424 7.82124L12.5737 7.65249C12.5737 7.65249 10.4837 7.57249 8.2274 9.23999C8.2274 9.23999 5.97115 13.17 5.97115 18.015C5.97115 18.015 7.22115 20.19 10.6499 20.2725C10.6499 20.2725 11.1499 19.6062 11.6562 19.02C9.73115 18.435 8.98115 17.265 8.98115 17.265C8.98115 17.265 9.14865 17.3475 9.3999 17.515H9.4749C9.5124 17.515 9.5299 17.5337 9.5499 17.5525V17.56C9.5699 17.58 9.5874 17.5975 9.6249 17.5975C10.0374 17.7675 10.4499 17.935 10.7874 18.0975C11.3699 18.35 12.1187 18.6012 13.0374 18.7675C14.1999 18.9362 15.5324 19.0175 17.0499 18.7675C17.7999 18.5987 18.5499 18.4337 19.2999 18.0987C19.7874 17.8487 20.3874 17.5987 21.0462 17.1775C21.0462 17.1775 20.2962 18.3475 18.2899 18.9325C18.7024 19.515 19.2837 20.1825 19.2837 20.1825C22.7137 20.1075 24.0462 17.9325 24.1212 18.025C24.1212 13.1875 21.8524 9.24999 21.8524 9.24999C19.8087 7.73249 17.8962 7.67499 17.5587 7.67499L17.6287 7.64999L17.6299 7.65374ZM17.8399 13.17C18.7187 13.17 19.4274 13.92 19.4274 14.8387C19.4274 15.7637 18.7149 16.5137 17.8399 16.5137C16.9649 16.5137 16.2524 15.7637 16.2524 14.8462C16.2549 13.9212 16.9687 13.1737 17.8399 13.1737V13.17ZM12.1612 13.17C13.0362 13.17 13.7437 13.92 13.7437 14.8387C13.7437 15.7637 13.0312 16.5137 12.1562 16.5137C11.2812 16.5137 10.5687 15.7637 10.5687 14.8462C10.5687 13.9212 11.2812 13.1737 12.1562 13.1737L12.1612 13.17Z" fill="white"/>
</g>
<defs>
<clipPath id="clip0_1_6048">
<rect width="30" height="30" fill="white" transform="translate(0 0.549988)"/>
</clipPath>
</defs>
</svg>
