<svg width="31" height="31" viewBox="0 0 31 31" fill="none" xmlns="http://www.w3.org/2000/svg">
<g id="68747470733a2f2f63646e2e6a7364656c6976722e6e65742f6e706d2f73696d706c652d69636f6e7340332e302e312f69636f6e732f6c696e6b6564696e2e737667" clip-path="url(#clip0_1_6045)">
<path id="Vector" d="M25.7787 26.115H21.3362V19.1537C21.3362 17.4937 21.3025 15.3575 19.0212 15.3575C16.705 15.3575 16.3512 17.1637 16.3512 19.0312V26.115H11.9087V11.8H16.1762V13.7512H16.2337C16.83 12.6262 18.28 11.4387 20.4462 11.4387C24.9475 11.4387 25.78 14.4012 25.78 18.2575L25.7787 26.115ZM6.89122 9.84124C5.46122 9.84124 4.31247 8.68374 4.31247 7.25999C4.31247 5.83749 5.46247 4.68124 6.89122 4.68124C8.31622 4.68124 9.47122 5.83749 9.47122 7.25999C9.47122 8.68374 8.31497 9.84124 6.89122 9.84124ZM9.11872 26.115H4.66372V11.8H9.11872V26.115ZM28.0012 0.549988H2.43372C1.20997 0.549988 0.219971 1.51749 0.219971 2.71124V28.3887C0.219971 29.5837 1.20997 30.55 2.43372 30.55H27.9975C29.22 30.55 30.22 29.5837 30.22 28.3887V2.71124C30.22 1.51749 29.22 0.549988 27.9975 0.549988H28.0012Z" fill="#2F81F7"/>
</g>
<defs>
<clipPath id="clip0_1_6045">
<rect width="30" height="30" fill="white" transform="translate(0.219971 0.549988)"/>
</clipPath>
</defs>
</svg>
