<svg width="16" height="16" viewBox="0 0 16 16" fill="none" xmlns="http://www.w3.org/2000/svg">
<g id="Main &#226;&#134;&#146; Link &#226;&#134;&#146; SVG">
<path id="Vector" d="M1.99993 5.5C1.99986 4.91987 2.14399 4.34882 2.41936 3.83821C2.69473 3.32761 3.0927 2.89346 3.57748 2.57481C4.06226 2.25616 4.61865 2.06301 5.19659 2.01274C5.77454 1.96246 6.35591 2.05663 6.88844 2.28677C7.42096 2.51692 7.88792 2.87582 8.24733 3.33121C8.60674 3.78659 8.84732 4.32417 8.94742 4.89559C9.04753 5.46702 9.00403 6.05437 8.82084 6.60481C8.63764 7.15525 8.3205 7.65153 7.89793 8.049C8.69474 8.43565 9.38655 9.00875 9.91472 9.7197C10.4429 10.4307 10.7918 11.2585 10.9319 12.133C10.9474 12.2303 10.9435 12.3297 10.9205 12.4255C10.8975 12.5213 10.8559 12.6117 10.798 12.6914C10.7401 12.7711 10.6671 12.8386 10.5831 12.8901C10.4991 12.9416 10.4057 12.9761 10.3084 12.9915C10.2111 13.0069 10.1117 13.003 10.0159 12.9801C9.92011 12.9571 9.82977 12.9154 9.75005 12.8575C9.67033 12.7997 9.6028 12.7266 9.5513 12.6426C9.49981 12.5586 9.46536 12.4653 9.44993 12.368C9.29994 11.4283 8.81986 10.5729 8.0959 9.95529C7.37193 9.33772 6.45152 8.99847 5.49993 8.99847C4.54834 8.99847 3.62793 9.33772 2.90396 9.95529C2.18 10.5729 1.69992 11.4283 1.54993 12.368C1.53443 12.4653 1.49992 12.5586 1.44837 12.6426C1.39681 12.7266 1.32922 12.7996 1.24946 12.8574C1.16969 12.9153 1.07931 12.9568 0.983481 12.9797C0.887649 13.0027 0.78824 13.0065 0.69093 12.991C0.593621 12.9755 0.500316 12.941 0.416344 12.8894C0.332372 12.8379 0.259377 12.7703 0.201526 12.6905C0.143675 12.6108 0.102101 12.5204 0.079179 12.4245C0.0562567 12.3287 0.0524344 12.2293 0.0679304 12.132C0.208265 11.2578 0.557305 10.4304 1.08546 9.71976C1.61362 9.00917 2.30532 8.4364 3.10193 8.05C2.7536 7.72293 2.47608 7.32787 2.28653 6.88926C2.09698 6.45065 1.99944 5.97781 1.99993 5.5ZM10.9999 4C11.5809 4.0004 12.1493 4.16946 12.6361 4.48665C13.1229 4.80383 13.5072 5.25551 13.7423 5.78684C13.9773 6.31818 14.0531 6.90633 13.9604 7.4799C13.8677 8.05346 13.6104 8.58778 13.2199 9.018C13.8286 9.32018 14.3694 9.74304 14.8095 10.2608C15.2496 10.7786 15.5798 11.3806 15.7799 12.03C15.8196 12.1561 15.8251 12.2904 15.7961 12.4193C15.767 12.5482 15.7044 12.6672 15.6145 12.7641C15.5246 12.8609 15.4107 12.9323 15.2844 12.9709C15.158 13.0096 15.0236 13.0141 14.8949 12.984C14.7664 12.954 14.6479 12.8908 14.5516 12.8006C14.4552 12.7103 14.3843 12.5963 14.3459 12.47C14.1667 11.8902 13.8401 11.3668 13.398 10.9511C12.956 10.5353 12.4136 10.2414 11.8239 10.098C11.6602 10.0585 11.5145 9.96495 11.4104 9.83252C11.3062 9.70009 11.2497 9.53646 11.2499 9.368V9.016C11.2498 8.87636 11.2887 8.73948 11.3622 8.62075C11.4357 8.50203 11.5409 8.40618 11.6659 8.344C11.9691 8.19375 12.2126 7.94542 12.3568 7.63934C12.501 7.33327 12.5375 6.98742 12.4603 6.65798C12.3832 6.32854 12.1969 6.03487 11.9318 5.82465C11.6667 5.61443 11.3383 5.50002 10.9999 5.5C10.801 5.5 10.6103 5.42098 10.4696 5.28033C10.3289 5.13967 10.2499 4.94891 10.2499 4.75C10.2499 4.55108 10.3289 4.36032 10.4696 4.21967C10.6103 4.07901 10.801 4 10.9999 4ZM5.49993 3.5C5.23359 3.49397 4.96873 3.54122 4.72091 3.63897C4.47308 3.73671 4.24728 3.88299 4.05676 4.0692C3.86624 4.25541 3.71484 4.47781 3.61146 4.72334C3.50807 4.96887 3.45478 5.23258 3.45471 5.49899C3.45465 5.76539 3.50781 6.02913 3.61107 6.27471C3.71433 6.52029 3.86562 6.74276 4.05604 6.92907C4.24647 7.11538 4.4722 7.26177 4.71998 7.35964C4.96775 7.45751 5.23259 7.50489 5.49893 7.499C6.02149 7.48744 6.51877 7.27177 6.8843 6.89816C7.24984 6.52454 7.45458 6.02267 7.45471 5.49999C7.45485 4.9773 7.25035 4.47533 6.885 4.10153C6.51965 3.72773 6.02249 3.51181 5.49993 3.5Z" fill="#7D8590"/>
</g>
</svg>
